<?xml version="1.0" encoding="UTF-8" standalone="no"?>
<!-- Created with Inkscape (http://www.inkscape.org/) -->

<svg
   width="512"
   height="512"
   viewBox="0 0 135.46666 135.46667"
   version="1.1"
   id="svg1"
   xml:space="preserve"
   xmlns="http://www.w3.org/2000/svg"
   xmlns:svg="http://www.w3.org/2000/svg"><defs
     id="defs1"><clipPath
       clipPathUnits="userSpaceOnUse"
       id="clipPath2"><rect
         style="fill:none;stroke:#407068;stroke-width:1.021;stroke-opacity:0"
         id="rect3"
         width="113.65833"
         height="111.29044"
         x="25.708427"
         y="76.78701"
         rx="15.736757" /></clipPath></defs><g
     id="layer1"><rect
       style="fill:none;stroke:#407068;stroke-width:1.021;stroke-opacity:0"
       id="rect1"
       width="110.95216"
       height="118.05581"
       x="2.0296109"
       y="14.207285"
       rx="15.736757" /><rect
       style="fill:none;stroke:#407068;stroke-width:1.021;stroke-opacity:0"
       id="rect4"
       width="10.824601"
       height="2.0296128"
       x="92.009109"
       y="62.917988"
       rx="15.736757" /><rect
       style="fill:none;stroke:#407068;stroke-width:1.021;stroke-opacity:0"
       id="rect5"
       width="0.33826879"
       height="9.1332569"
       x="97.421402"
       y="55.476078"
       rx="15.736757" /><path
       style="fill:#000000"
       d="M 183.9299,143.01895 V 7.5522889 h 101.6 101.6 V 143.01895 278.48561 h -101.6 -101.6 z m 123.56042,40.21666 c 0.72392,-0.72391 0.66876,-1.8696 -0.19006,-3.94799 -0.6307,-1.52632 -0.72025,-2.09876 -0.7276,-4.65096 -0.008,-2.65222 0.0541,-3.02779 0.69559,-4.23334 1.24505,-2.33968 3.67947,-4.08159 5.72332,-4.09523 1.52549,-0.0102 4.87262,-0.81887 6.25707,-1.51175 1.85142,-0.9266 2.96057,-1.80325 3.87018,-3.05893 1.07268,-1.48079 1.01344,-1.78447 -0.34882,-1.78824 -0.61846,-0.002 -3.02229,-0.23984 -5.34185,-0.52917 -5.47645,-0.6831 -10.74171,-0.67445 -17.74444,0.0291 -6.10845,0.61374 -7.12393,0.53245 -8.42632,-0.67457 -0.67099,-0.62185 -0.94681,-1.81378 -0.48568,-2.09878 0.1181,-0.073 0.98131,-0.003 1.91823,0.15543 1.42979,0.24184 2.3837,0.19302 5.93683,-0.30387 6.1077,-0.85412 13.88395,-1.01525 19.92415,-0.41283 3.65787,0.36482 5.06665,0.40635 6.43997,0.18988 3.8111,-0.60072 6.9003,-2.95255 8.6116,-6.55607 0.8456,-1.78059 0.97292,-2.32139 1.08256,-4.59845 l 0.12427,-2.58054 -1.55482,-0.14554 c -2.89539,-0.27102 -4.22659,-0.95089 -7.60344,-3.88325 -2.85586,-2.47995 -3.68995,-2.7982 -7.31283,-2.79029 -2.52916,0.006 -3.24366,0.10055 -4.23333,0.563 -1.51592,0.70836 -4.23333,2.72672 -4.23333,3.1443 0,0.74165 -2.69806,4.35805 -4.48241,6.00811 -4.7321,4.37594 -11.20015,5.79293 -17.36624,3.80452 -2.27965,-0.73514 -5.57814,-2.81847 -6.36587,-4.02071 -0.54898,-0.83783 -0.6775,-0.68687 -1.36718,1.60592 -0.81244,2.70084 -0.94999,4.69671 -0.47915,6.9521 0.53825,2.57826 1.52827,4.33196 3.64977,6.46513 1.5035,1.51178 2.26683,2.01688 5.11805,3.38666 3.6341,1.74589 5.58845,3.28378 6.53779,5.14465 0.29729,0.58272 0.89482,2.193 1.32787,3.57839 1.2982,4.15318 3.40292,7.77411 5.53759,9.52675 2.19986,1.80617 4.47983,2.35522 5.50853,1.32652 z m -41.93646,-24.23738 c 3.3559,-0.82145 7.28928,-4.06136 8.79942,-7.24803 1.69299,-3.57254 1.65162,-2.93988 1.65162,-25.25715 0,-13.47766 0.0919,-20.45773 0.27389,-20.79774 0.15064,-0.28148 0.42456,-0.51178 0.60871,-0.51178 0.18414,0 5.78806,-1.55229 12.45314,-3.44954 9.46935,-2.695503 12.19917,-3.382453 12.48817,-3.142603 0.57151,0.47431 0.54843,25.958303 -0.0239,26.433323 -0.31646,0.26263 -0.823,0.21094 -2.57969,-0.26324 -2.8478,-0.76871 -6.90469,-0.65674 -9.28316,0.2562 -3.45759,1.32716 -6.3314,4.35964 -7.36907,7.77593 -1.69165,5.5694 1.53302,11.33179 7.27556,13.00119 1.78258,0.51821 5.39654,0.58974 7.05179,0.13956 4.53778,-1.23412 8.33164,-4.9933 9.99752,-9.90611 l 0.72478,-2.13741 0.0738,-25.33824 0.0738,-25.338243 -0.65707,-0.65707 c -1.17403,-1.17403 -2.72418,-0.97871 -10.603,1.33602 -2.18281,0.64129 -8.61219,2.47868 -14.2875,4.08309 -12.74335,3.60253 -11.76833,2.92841 -11.78684,8.14934 -0.09,25.397663 -0.31488,40.177553 -0.61588,40.484773 -0.26904,0.2746 -0.75254,0.23752 -2.56339,-0.19658 -2.6349,-0.63164 -5.86468,-0.69224 -7.90835,-0.14837 -3.87275,1.03063 -7.29964,3.7361 -8.83368,6.97402 -0.78735,1.66188 -0.83561,1.93982 -0.83561,4.81203 0,2.90278 0.0409,3.13142 0.85769,4.79049 1.14279,2.32133 3.04256,4.20545 5.43023,5.3855 2.94765,1.45681 5.83552,1.68895 9.58708,0.77064 z m -20.1881,-14.72251 c 0.23004,-0.1819 0.55893,-0.77492 0.73087,-1.31783 0.50081,-1.58132 2.70466,-4.73121 4.31047,-6.1608 2.03216,-1.80916 4.00568,-2.95311 6.74327,-3.90873 2.04059,-0.71231 2.71396,-0.81673 5.62536,-0.87229 l 3.3073,-0.0631 0.0679,-18.53382 c 0.0773,-21.101513 0.34554,-18.921453 -2.367,-19.240263 -3.93074,-0.46198 -8.62063,1.85278 -11.0742,5.46581 -0.57558,0.847593 -1.04652,1.607133 -1.04652,1.687883 0,0.0807 0.62508,0.152 1.38907,0.15836 0.76398,0.006 2.81168,0.17138 4.55044,0.36673 2.74305,0.30818 3.22662,0.43574 3.6543,0.96391 0.33716,0.41637 0.43925,0.82256 0.32308,1.28543 -0.37679,1.50124 -0.91119,1.60793 -4.5957,0.91752 -3.10712,-0.58223 -7.52119,-0.41014 -9.68681,0.37764 -2.1595,0.78555 -4.82052,2.65233 -6.01464,4.21943 -0.97756,1.28288 -2.4516,4.24954 -2.22438,4.47676 0.0648,0.0648 0.84872,-0.026 1.74209,-0.20178 0.92423,-0.18184 2.56965,-0.26059 3.8177,-0.18272 3.83494,0.23925 5.69048,1.5356 4.90664,3.42796 -0.42601,1.02847 -1.15004,1.13565 -3.97894,0.58896 -2.08159,-0.40227 -2.70232,-0.42454 -4.30895,-0.15456 -7.74829,1.30201 -11.86407,9.35923 -8.86943,17.36313 1.8781,5.01967 7.34234,9.49512 11.77049,9.64054 0.44512,0.0146 0.99753,-0.12225 1.22757,-0.30415 z m -1.89661,-14.29712 c -0.35941,-0.18082 -0.82339,-0.63151 -1.03108,-1.00153 -0.78267,-1.39443 -0.2776,-1.81604 8.42906,-7.03628 4.43709,-2.66034 8.38893,-4.9076 8.78188,-4.9939 2.29315,-0.50366 3.01036,2.73273 0.85253,3.84706 -0.70935,0.36632 -6.2866,3.7135 -12.67476,7.60675 -3.076,1.87465 -3.47828,2.02032 -4.35763,1.5779 z m 91.95465,8.11836 c 1.18704,-0.56329 2.67204,-2.2415 3.31903,-3.75089 0.73925,-1.72459 1.06406,-4.66175 0.74209,-6.71059 -0.34882,-2.21969 -1.77792,-5.19984 -3.15286,-6.57479 -1.63445,-1.63444 -3.42583,-2.38025 -5.6907,-2.36921 -2.36366,0.0115 -3.14256,0.30289 -6.33045,2.36801 -2.28989,1.4834 -2.79737,1.70419 -4.14048,1.80134 -1.36845,0.099 -1.60282,0.0386 -2.21063,-0.56918 -1.53064,-1.53064 -0.4133,-3.39689 1.98296,-3.31208 1.09008,0.0386 1.61841,-0.16021 3.92092,-1.47531 3.14834,-1.79822 4.55749,-2.26656 6.81973,-2.26656 0.92276,0 1.67774,-0.047 1.67774,-0.10442 0,-0.0574 -0.24006,-0.88165 -0.53347,-1.83159 -1.34655,-4.35964 -5.89722,-7.95664 -10.99553,-8.69123 -2.88617,-0.41585 -5.80014,-0.11086 -7.58496,0.79388 l -1.39125,0.70524 -0.0686,13.55989 c -0.0377,7.45794 -0.0221,13.5599 0.0346,13.5599 0.0568,0 0.92104,-0.3085 1.92063,-0.68556 1.65967,-0.62604 2.09306,-0.67751 4.99244,-0.59295 2.90497,0.0847 3.32126,0.16246 4.89479,0.9141 0.94588,0.45183 2.70103,1.67652 3.90032,2.72154 1.19929,1.04501 2.68757,2.13017 3.30729,2.41147 1.37706,0.62505 3.3863,0.66842 4.58629,0.099 z m -45.93104,-25.91623 c 3.85306,-1.1088 7.21047,-2.12565 7.46091,-2.25968 1.88025,-1.00628 1.57714,-5.26668 -0.3747,-5.26668 -0.62662,0 -4.56566,1.03311 -11.18136,2.93258 -5.12061,1.4702 -5.42396,1.67851 -5.42396,3.72445 0,2.07038 0.93488,3.29858 2.24896,2.95458 0.14552,-0.0381 3.41709,-0.97646 7.27015,-2.08525 z m 24.47985,-10.44604 c 0.7276,-0.16128 2.84096,-0.28237 4.69635,-0.26907 1.85539,0.0133 3.37232,-0.0675 3.37096,-0.17947 -0.008,-0.64174 -1.75856,-3.092703 -2.96136,-4.145813 -1.7235,-1.50899 -3.6697,-2.27555 -5.77734,-2.27555 h -1.57757 v 3.72199 c 0,3.421863 0.0373,3.710673 0.46302,3.581583 0.25466,-0.0772 1.05833,-0.27238 1.78594,-0.43367 z m -212.37998,81.76947 c -1.17628,-0.35477 -3.032552,-1.84 -4.269402,-3.416 -1.50275,-1.91482 -2.79511,-4.52399 -3.87966,-7.83275 -1.10641,-3.37541 -1.38118,-3.90132 -2.87374,-5.50025 -0.94466,-1.01198 -1.96198,-1.67444 -4.40347,-2.86743 -3.84654,-1.87955 -5.43466,-3.04612 -7.04812,-5.17725 -2.72929,-3.60498 -3.17338,-8.21447 -1.27296,-13.21297 l 0.25763,-0.6776 1.57829,1.46122 c 2.89322,2.67861 6.31346,3.91156 10.85079,3.91156 4.30628,0 7.3075,-0.99779 10.654242,-3.54211 1.94605,-1.47947 4.35102,-4.30007 5.35392,-6.27918 0.79868,-1.57612 2.16414,-2.77071 4.35222,-3.80759 1.5848,-0.75099 1.95764,-0.82014 4.37816,-0.81192 3.2884,0.0112 4.536,0.53613 7.79803,3.28123 2.73885,2.30482 4.57313,3.216 6.84046,3.398 l 1.69055,0.1357 -0.10168,2.67346 c -0.0885,2.32687 -0.21002,2.90408 -0.93742,4.45234 -1.14975,2.44725 -2.90936,4.25518 -5.21854,5.36188 -2.85748,1.36947 -4.61914,1.5779 -9.13527,1.08079 -5.52487,-0.60814 -13.50653,-0.5489 -19.284042,0.14313 -3.15381,0.37776 -5.42748,0.51194 -7.00048,0.41312 -1.95424,-0.12278 -2.35509,-0.08 -2.48759,0.26523 -0.31319,0.81617 0.2978,1.79375 1.50014,2.4002 1.44851,0.73062 2.91548,0.75949 7.8938,0.15538 5.044562,-0.61215 13.136762,-0.61818 18.045162,-0.0134 2.11005,0.25997 4.33483,0.53401 4.94395,0.60898 l 1.1075,0.1363 -0.52925,0.89701 c -1.5744,2.66841 -5.30907,4.5898 -9.75553,5.01897 -2.05786,0.19862 -4.19361,1.16101 -5.18952,2.33844 -0.39374,0.46551 -1.02022,1.50122 -1.39218,2.30159 -0.57811,1.24394 -0.6753,1.82012 -0.6695,3.96875 0.006,2.20808 0.10936,2.76516 0.85087,4.58405 1.01469,2.48901 1.03699,2.92001 0.19465,3.76235 -0.67229,0.67228 -1.51835,0.78803 -2.84201,0.38881 z M 55.105498,159.00441 c -2.17395,-0.58461 -3.8779,-1.63611 -5.55284,-3.42663 -1.78374,-1.90682 -2.55655,-3.41647 -2.92724,-5.71824 -0.81219,-5.04325 2.14583,-10.19065 7.19746,-12.52464 3.42027,-1.58027 6.43014,-1.79377 10.71826,-0.7603 1.70356,0.41057 1.96765,0.41844 2.31704,0.0691 0.34244,-0.34244 0.39698,-3.16617 0.41443,-21.45762 0.0111,-11.58481 0.11931,-21.503153 0.24056,-22.040753 0.37538,-1.66439 1.03218,-2.09405 4.8447,-3.16934 7.34575,-2.07179 20.04973,-5.70246 23.59807,-6.7441 2.0373,-0.59805 4.537612,-1.15669 5.556252,-1.24142 1.60801,-0.13375 1.93926,-0.0831 2.51355,0.3843 l 0.66145,0.53834 -0.033,25.092013 c -0.0294,22.3908 -0.08,25.27714 -0.4701,26.8118 -1.35508,5.33095 -4.819042,9.25878 -9.629012,10.91847 -2.10863,0.72759 -5.97872,0.72186 -8.01998,-0.0119 -5.39057,-1.93763 -8.32249,-6.63204 -7.27618,-11.65018 1.5409,-7.39022 8.86638,-11.38822 16.97145,-9.26245 1.82833,0.47952 2.27156,0.51885 2.61697,0.23218 0.36768,-0.30514 0.41584,-1.84181 0.41584,-13.26799 0,-12.605013 -0.0129,-12.929773 -0.52344,-13.203023 -0.41608,-0.22268 -2.54615,0.29337 -10.3849,2.515933 -14.57507,4.13254 -14.59668,4.13893 -14.95468,4.42515 -0.25943,0.20741 -0.33072,4.65976 -0.33072,20.65417 0,22.66959 0.0361,22.15021 -1.78288,25.64903 -1.84597,3.55075 -5.73659,6.53492 -9.54109,7.31817 -1.90917,0.39305 -4.9136,0.33421 -6.64002,-0.13005 z m -16.90435,-15.1629 c -4.46663,-1.54285 -8.74468,-6.78816 -9.59997,-11.77052 -0.86846,-5.05902 1.30116,-10.31188 5.30997,-12.85598 2.48909,-1.57964 5.91734,-2.00169 9.54937,-1.1756 1.69281,0.38502 1.90313,0.38474 2.49542,-0.003 1.49961,-0.98258 1.07239,-2.78511 -0.86753,-3.66027 -1.47132,-0.66377 -5.79517,-0.94225 -7.7305,-0.49789 -0.6509,0.14944 -1.2285,0.22667 -1.28356,0.17161 -0.0551,-0.0551 0.32153,-0.97671 0.83685,-2.04812 1.61303,-3.35362 4.8614,-5.91995 8.78775,-6.94263 2.16082,-0.56283 6.09219,-0.50739 8.8497,0.12477 2.84688,0.65266 2.80974,0.65391 3.5839,-0.12026 0.7675,-0.76749 0.82371,-1.45797 0.18311,-2.24908 -0.37394,-0.46179 -0.98982,-0.65004 -3.10885,-0.95021 -1.45339,-0.20588 -3.4462,-0.37664 -4.42847,-0.37947 -1.31191,-0.004 -1.78594,-0.0991 -1.78594,-0.35894 0,-0.66705 2.10992,-3.300343 3.40768,-4.252993 3.23869,-2.37742 7.88724,-3.39769 10.15222,-2.22824 0.43427,0.22422 0.46302,1.38676 0.46302,18.724023 v 18.48495 l -3.37344,0.10916 c -2.84668,0.0921 -3.72361,0.22877 -5.61604,0.87514 -4.27123,1.45886 -8.53187,5.08166 -10.42371,8.86322 -0.52785,1.05511 -0.95973,2.08098 -0.95973,2.27971 0,0.53638 -2.73364,0.45081 -4.44125,-0.13903 z m 7.58495,-15.86938 c 1.83623,-1.15732 5.24359,-3.23827 7.57193,-4.62435 5.48743,-3.26673 5.52979,-3.30146 5.52979,-4.5352 0,-1.16724 -0.80205,-1.98738 -1.94355,-1.98738 -0.40119,0 -1.70792,0.60114 -2.94725,1.35583 -1.22457,0.74571 -4.7268,2.8456 -7.78274,4.66642 -3.05594,1.82082 -5.88367,3.65336 -6.28386,4.0723 -0.91076,0.95346 -0.92667,1.90126 -0.0467,2.78123 1.01137,1.01137 2.02635,0.71407 5.90239,-1.72885 z m 82.184432,10.05386 c -0.58209,-0.26589 -2.0622,-1.3512 -3.28914,-2.4118 -3.82166,-3.30355 -7.3559,-4.44179 -11.59017,-3.73273 -1.12971,0.18918 -2.52287,0.56985 -3.09591,0.84593 -0.57304,0.27609 -1.07905,0.50198 -1.12448,0.50198 -0.0454,0 -0.0826,-6.05374 -0.0826,-13.45275 0,-15.25755 -0.19269,-14.00379 2.26599,-14.74374 1.75956,-0.52955 6.7482,-0.50164 8.60005,0.0481 3.16188,0.93866 6.04815,2.91682 7.62281,5.22442 0.7244,1.06157 1.88623,3.82679 1.88198,4.4792 -0.001,0.21293 -0.55742,0.33307 -1.65365,0.35729 -1.9704,0.0435 -3.77452,0.68572 -6.98404,2.48598 -1.96018,1.09949 -2.56135,1.31288 -3.70018,1.31338 -1.76661,7.9e-4 -2.58254,0.61299 -2.58254,1.93773 0,1.17802 0.67833,1.96614 1.88747,2.19298 1.3437,0.25208 2.81641,-0.29365 5.52425,-2.04706 1.32611,-0.85869 2.97561,-1.75361 3.66555,-1.9887 1.55143,-0.52862 3.80447,-0.37121 5.51469,0.3853 3.78601,1.67473 6.3003,7.08375 5.54899,11.93761 -0.85242,5.50707 -4.54283,8.43289 -8.40908,6.66687 z M 77.709408,113.66094 c -0.65022,-0.71849 -0.81702,-2.5891 -0.33395,-3.74524 0.35173,-0.84181 0.56966,-0.98918 2.07838,-1.40535 0.92699,-0.25571 4.38113,-1.22792 7.67586,-2.16046 3.29473,-0.93254 6.18199,-1.69552 6.41614,-1.69552 0.92384,0 1.48449,0.98013 1.47565,2.57969 -0.009,1.57496 -0.27089,2.15749 -1.19165,2.64772 -0.29624,0.15772 -3.03467,1.00439 -6.08542,1.88148 -3.05074,0.8771 -6.14212,1.77825 -6.86973,2.00255 -1.76889,0.54531 -2.60184,0.51772 -3.16528,-0.10487 z M 108.78824,98.507507 v -3.71383 l 1.84184,0.13179 c 3.23141,0.2312 6.15786,2.16607 7.739,5.116753 l 0.7173,1.3386 -3.8923,0.009 c -2.78421,0.006 -4.25009,0.12606 -5.14907,0.42025 l -1.25677,0.41128 z"
       id="path5"
       clip-path="url(#clipPath2)"
       transform="matrix(1.1155659,0,0,1.1155659,-24.25605,-79.576222)" /></g></svg>
