<svg width="1600" height="980" viewBox="0 0 1600 980" fill="none" xmlns="http://www.w3.org/2000/svg">
  <rect width="1600" height="980" fill="#F7FBFF"/>
  <rect x="28" y="28" width="1544" height="924" rx="36" fill="#FFFFFF" stroke="#BFD7F1" stroke-width="8"/>

  <rect x="64" y="86" width="122" height="52" rx="16" fill="#1A7BE8"/>
  <circle cx="92" cy="112" r="8" fill="#8FC3FF"/>
  <path d="M92 99V118C92 121 94 123 97 123C100 123 102 121 102 118V107L116 103V115C116 118 118 120 121 120C124 120 126 118 126 115V93L102 98V110" stroke="#FFFFFF" stroke-width="4" stroke-linecap="round" stroke-linejoin="round"/>
  <text x="142" y="118" text-anchor="middle" font-family="Arial, Helvetica, sans-serif" font-size="18" font-weight="700" fill="#FFFFFF">Melody</text>

  <rect x="1418" y="86" width="110" height="52" rx="16" fill="#FFFFFF" stroke="#E6EEF8" stroke-width="3"/>
  <circle cx="1455" cy="112" r="10" fill="#EFF5FC"/>
  <path d="M1455 101L1457.8 106.6L1464 107.6L1459.5 112L1460.6 118.2L1455 115.2L1449.4 118.2L1450.5 112L1446 107.6L1452.2 106.6L1455 101Z" fill="#64748B"/>
  <text x="1498" y="118" text-anchor="middle" font-family="Arial, Helvetica, sans-serif" font-size="18" font-weight="600" fill="#475569">Settings</text>

  <text x="800" y="135" text-anchor="middle" font-family="Arial, Helvetica, sans-serif" font-size="56" font-weight="700" fill="#162033">Cognote Melody Generator</text>
  <text x="800" y="182" text-anchor="middle" font-family="Arial, Helvetica, sans-serif" font-size="24" font-weight="500" fill="#7B8798">A simplified sight-reading interface for the hero section</text>

  <line x1="28" y1="218" x2="1572" y2="218" stroke="#E7EEF7" stroke-width="3"/>

  <g>
    <text x="86" y="268" font-family="Arial, Helvetica, sans-serif" font-size="20" font-weight="600" fill="#475569">Range</text>
    <rect x="64" y="286" width="248" height="58" rx="18" fill="#F5F8FD"/>
    <text x="188" y="322" text-anchor="middle" font-family="Arial, Helvetica, sans-serif" font-size="22" font-weight="700" fill="#334155">Melodic range</text>
  </g>

  <g>
    <text x="398" y="268" font-family="Arial, Helvetica, sans-serif" font-size="20" font-weight="600" fill="#475569">Bars</text>
    <rect x="376" y="286" width="154" height="58" rx="18" fill="#F5F8FD"/>
    <text x="453" y="322" text-anchor="middle" font-family="Arial, Helvetica, sans-serif" font-size="22" font-weight="700" fill="#334155">4 bars</text>
  </g>

  <g>
    <text x="660" y="268" font-family="Arial, Helvetica, sans-serif" font-size="20" font-weight="600" fill="#475569">Key</text>
    <rect x="640" y="286" width="204" height="58" rx="18" fill="#F5F8FD"/>
    <text x="742" y="322" text-anchor="middle" font-family="Arial, Helvetica, sans-serif" font-size="22" font-weight="700" fill="#334155">C major</text>
  </g>

  <g>
    <text x="942" y="268" font-family="Arial, Helvetica, sans-serif" font-size="20" font-weight="600" fill="#475569">Meter</text>
    <rect x="920" y="286" width="204" height="58" rx="18" fill="#F5F8FD"/>
    <text x="1022" y="322" text-anchor="middle" font-family="Inter, PingFang SC, Microsoft YaHei, sans-serif" font-size="22" font-weight="700" fill="#334155">4 / 4</text>
  </g>

  <g>
    <text x="1222" y="268" font-family="Arial, Helvetica, sans-serif" font-size="20" font-weight="600" fill="#475569">Clef</text>
    <rect x="1200" y="286" width="204" height="58" rx="18" fill="#F5F8FD"/>
    <text x="1302" y="322" text-anchor="middle" font-family="Arial, Helvetica, sans-serif" font-size="22" font-weight="700" fill="#334155">Treble clef</text>
  </g>

  <g>
    <text x="86" y="398" font-family="Arial, Helvetica, sans-serif" font-size="20" font-weight="600" fill="#475569">Lowest note</text>
    <rect x="64" y="418" width="370" height="60" rx="18" fill="#FFFFFF" stroke="#E5EDF7" stroke-width="3"/>
    <text x="102" y="456" font-family="Inter, PingFang SC, Microsoft YaHei, sans-serif" font-size="24" font-weight="600" fill="#334155">C4</text>
    <path d="M402 443L412 455L422 443" stroke="#64748B" stroke-width="4" stroke-linecap="round" stroke-linejoin="round"/>
  </g>

  <g>
    <text x="484" y="398" font-family="Arial, Helvetica, sans-serif" font-size="20" font-weight="600" fill="#475569">Highest note</text>
    <rect x="462" y="418" width="370" height="60" rx="18" fill="#FFFFFF" stroke="#E5EDF7" stroke-width="3"/>
    <text x="500" y="456" font-family="Inter, PingFang SC, Microsoft YaHei, sans-serif" font-size="24" font-weight="600" fill="#334155">G5</text>
    <path d="M800 443L810 455L820 443" stroke="#64748B" stroke-width="4" stroke-linecap="round" stroke-linejoin="round"/>
  </g>

  <g>
    <text x="920" y="398" font-family="Arial, Helvetica, sans-serif" font-size="20" font-weight="600" fill="#475569">Accidentals</text>
    <circle cx="936" cy="448" r="12" fill="#FFFFFF" stroke="#1A7BE8" stroke-width="5"/>
    <text x="986" y="456" font-family="Inter, PingFang SC, Microsoft YaHei, sans-serif" font-size="24" font-weight="700" fill="#334155">0%</text>
  </g>

  <g>
    <text x="1178" y="398" font-family="Arial, Helvetica, sans-serif" font-size="20" font-weight="600" fill="#475569">Mode</text>
    <rect x="1172" y="426" width="72" height="40" rx="20" fill="#E8EEF5"/>
    <circle cx="1192" cy="446" r="16" fill="#FFFFFF"/>
    <text x="1264" y="452" font-family="Arial, Helvetica, sans-serif" font-size="22" font-weight="600" fill="#334155">Challenge</text>
  </g>

  <g>
    <text x="1382" y="398" font-family="Arial, Helvetica, sans-serif" font-size="20" font-weight="600" fill="#475569">Metronome</text>
    <rect x="1370" y="426" width="86" height="40" rx="12" fill="#FFFFFF" stroke="#E5EDF7" stroke-width="3"/>
    <text x="1413" y="452" text-anchor="middle" font-family="Inter, PingFang SC, Microsoft YaHei, sans-serif" font-size="22" font-weight="700" fill="#334155">60</text>
    <circle cx="1490" cy="446" r="18" fill="#1A7BE8"/>
    <path d="M1484 437V454C1484 456.8 1486.2 459 1489 459C1491.8 459 1494 456.8 1494 454V444L1504 441V451C1504 453.8 1506.2 456 1509 456C1511.8 456 1514 453.8 1514 451V434L1494 438V447" stroke="#FFFFFF" stroke-width="3.2" stroke-linecap="round" stroke-linejoin="round"/>
  </g>

  <g>
    <rect x="344" y="534" width="150" height="64" rx="20" fill="#1A7BE8"/>
    <text x="419" y="575" text-anchor="middle" font-family="Arial, Helvetica, sans-serif" font-size="24" font-weight="800" fill="#FFFFFF">Generate</text>

    <rect x="516" y="534" width="130" height="64" rx="20" fill="#F5F8FD"/>
    <text x="581" y="575" text-anchor="middle" font-family="Arial, Helvetica, sans-serif" font-size="24" font-weight="700" fill="#334155">Prev</text>

    <rect x="666" y="534" width="130" height="64" rx="20" fill="#F5F8FD"/>
    <text x="731" y="575" text-anchor="middle" font-family="Arial, Helvetica, sans-serif" font-size="24" font-weight="700" fill="#334155">Next</text>

    <rect x="816" y="534" width="120" height="64" rx="20" fill="#F5F8FD"/>
    <text x="876" y="575" text-anchor="middle" font-family="Arial, Helvetica, sans-serif" font-size="24" font-weight="700" fill="#334155">Play</text>

    <rect x="956" y="534" width="150" height="64" rx="20" fill="#F5F8FD"/>
    <text x="1031" y="575" text-anchor="middle" font-family="Arial, Helvetica, sans-serif" font-size="24" font-weight="700" fill="#334155">Rhythm</text>

    <rect x="1126" y="534" width="150" height="64" rx="20" fill="#F5F8FD"/>
    <text x="1201" y="575" text-anchor="middle" font-family="Arial, Helvetica, sans-serif" font-size="24" font-weight="700" fill="#334155">Articulation</text>
  </g>

  <rect x="140" y="640" width="1320" height="232" rx="30" fill="#FFFFFF" stroke="#E8EFF8" stroke-width="4"/>
  <rect x="768" y="606" width="64" height="8" rx="4" fill="#D6E6FA"/>

  <g transform="translate(210 690)">
    <line x1="0" y1="36" x2="1180" y2="36" stroke="#C7D6E8" stroke-width="3"/>
    <line x1="0" y1="64" x2="1180" y2="64" stroke="#C7D6E8" stroke-width="3"/>
    <line x1="0" y1="92" x2="1180" y2="92" stroke="#C7D6E8" stroke-width="3"/>
    <line x1="0" y1="120" x2="1180" y2="120" stroke="#C7D6E8" stroke-width="3"/>
    <line x1="0" y1="148" x2="1180" y2="148" stroke="#C7D6E8" stroke-width="3"/>

    <path d="M44 140C28 114 28 76 50 50C69 27 77 5 56 -12C46 -20 31 -24 18 -18" stroke="#1A7BE8" stroke-width="5" stroke-linecap="round"/>
    <circle cx="178" cy="116" r="15" fill="#1A7BE8"/>
    <rect x="190" y="40" width="6" height="76" rx="3" fill="#1A7BE8"/>

    <circle cx="322" cy="92" r="15" fill="#1A7BE8"/>
    <rect x="334" y="26" width="6" height="66" rx="3" fill="#1A7BE8"/>

    <circle cx="466" cy="104" r="15" fill="#1A7BE8"/>
    <rect x="478" y="34" width="6" height="70" rx="3" fill="#1A7BE8"/>

    <circle cx="622" cy="80" r="15" fill="#1A7BE8"/>
    <rect x="634" y="16" width="6" height="64" rx="3" fill="#1A7BE8"/>

    <circle cx="778" cy="116" r="15" fill="#1A7BE8"/>
    <rect x="790" y="48" width="6" height="68" rx="3" fill="#1A7BE8"/>

    <circle cx="942" cy="98" r="15" fill="#1A7BE8"/>
    <rect x="954" y="30" width="6" height="68" rx="3" fill="#1A7BE8"/>

    <circle cx="1092" cy="126" r="15" fill="#1A7BE8"/>
    <rect x="1104" y="50" width="6" height="76" rx="3" fill="#1A7BE8"/>
  </g>
</svg>
